<svg xmlns="http://www.w3.org/2000/svg" fill="#000" viewBox="0 0 229.16 45.36">
    <g>
        <path class="cls-1"
              d="M35.52 11.8a17.2 17.2 0 00-8.18-2c-8.87 0-16.85 6.63-16.85 15.83 0 6.7 4.94 10.56 11.36 10.56a22.85 22.85 0 0010.9-2.84l-1.69 9.2c-3.52 2-7.72 2.37-11.71 2.37C8.46 45 0 37.24 0 26.15 0 11.53 12.38.5 26.73.5c4 0 8.66.75 12.18 2.71zM70.14 44.35l-1.9-9.74H54.51l-5.28 9.74h-9.88L64 .84h7.24l9.34 43.51zm-4.6-25.85a31.55 31.55 0 01-.54-4.13h-.14a39.52 39.52 0 01-2 4.13l-4.4 8.12h8.59zM108.31 27.37H102l-3 17H88.9l7.57-43.19h16.17c6.57 0 12 4.2 12 11.1.05 9.06-7.64 15.09-16.33 15.09zM110 9.64h-4.88l-1.75 9.67H108c3.38 0 6.56-2.36 6.56-5.95-.02-2.64-2.19-3.72-4.56-3.72zM225.78 12.28a21 21 0 00-10.69-3 16.53 16.53 0 00-16.51 13.6 18.69 18.69 0 00-.27 2.71c0 6.9 5.14 11 11.57 11a14 14 0 006.36-1.59l1.15-6.63H210l1.42-8h17.12l-3.71 20.53c-4.19 2.91-9.34 4.46-16.37 4.46-11 0-20.5-7.1-20.5-19.21a26.21 26.21 0 01.4-4.47C191 6.8 204.33.1 214.82.1c6.29 0 11.64 1.82 14.34 3.85zM161.09 6.04L156.37.03l-.03-.03-4.74 6.04h9.49zM140.56 14.17l-7.49 2.75-.04.01 4.47 6.66 3.06-9.42zM162.52 42.01l8.19 2.32.04.01.32-8.54-8.55 6.21zM172.13 14.17l3.06 9.43 4.44-6.63.03-.04-7.53-2.76zM141.61 35.79l.32 8.51.01.04 8.22-2.33-8.55-6.22z"/>
    </g>
</svg>
