<svg xmlns="http://www.w3.org/2000/svg" fill="#000" viewBox="0 0 299.34 90.13">
    <g>
        <path class="cls-1"
              d="M46.4 15.42a22.43 22.43 0 00-10.69-2.56c-11.58 0-22 8.66-22 20.68 0 8.75 6.45 13.78 14.85 13.78a29.66 29.66 0 0014.23-3.71l-2.21 12c-4.6 2.65-10.08 3.1-15.29 3.1C11.05 58.73 0 48.65 0 34.15 0 15.06 16.17.66 34.91.66c5.22 0 11.31 1 15.91 3.53zM91.62 57.93L89.14 45.2H71.2l-6.89 12.73H51.4L83.57 1.1H93l12.2 56.83zm-6-33.76a41.67 41.67 0 01-.71-5.39h-.18a51 51 0 01-2.56 5.39l-5.74 10.6h11.21zM141.48 35.75h-8.3l-3.89 22.18h-13.17L126 1.54h21.12c8.57 0 15.73 5.48 15.73 14.5.02 11.84-10.05 19.71-21.37 19.71zm2.21-23.16h-6.36L135 25.23h6c4.42 0 8.57-3.09 8.57-7.78.04-3.45-2.78-4.86-5.88-4.86zM294.92 16a27.4 27.4 0 00-14-4 21.58 21.58 0 00-21.56 17.76 24.85 24.85 0 00-.36 3.54c0 9 6.72 14.32 15.12 14.32a18.3 18.3 0 008.31-2l1.5-8.66h-9.72l1.85-10.52h22.36l-4.77 26.87c-5.48 3.8-12.2 5.84-21.39 5.84-14.4 0-26.78-9.28-26.78-25.11a34.42 34.42 0 01.53-5.83C249.49 8.88 266.9.13 280.6.13c8.22 0 15.2 2.38 18.74 5zM210.43 7.89L204.25.04l-.03-.04-6.2 7.89h12.41zM183.6 18.51l-9.78 3.6-.05.01 5.83 8.7 4-12.31zM212.29 54.87l10.7 3.04.05.01.42-11.16-11.17 8.11zM224.84 18.51l4 12.31 5.8-8.66.03-.04-9.83-3.61zM184.97 46.75l.43 11.12v.05l10.75-3.05-11.18-8.12zM13.5 80.71a3.29 3.29 0 00-1.83-.54A3.69 3.69 0 008 83.85a2.34 2.34 0 002.56 2.42 4 4 0 002.08-.53l-.11.49a4.19 4.19 0 01-2 .45 2.72 2.72 0 01-3-2.8 4.12 4.12 0 014.18-4.13 3.7 3.7 0 012 .54z"/>
        <path class="cls-1"
              d="M10.51 86.75a2.8 2.8 0 01-3-2.87 4.18 4.18 0 014.24-4.2 3.82 3.82 0 012 .55.07.07 0 010 .09l-.19.42a.05.05 0 01-.05 0 3.29 3.29 0 00-1.79-.52 3.6 3.6 0 00-3.59 3.61 2.27 2.27 0 002.49 2.36 3.86 3.86 0 002-.53h.07v.07l-.1.49a.1.1 0 010 .05 4.13 4.13 0 01-2.08.48zm1.21-6.93a4 4 0 00-4.11 4.06 2.64 2.64 0 002.9 2.73 4.05 4.05 0 002-.42l.07-.32a4.05 4.05 0 01-2 .47 2.4 2.4 0 01-2.63-2.49 3.74 3.74 0 013.73-3.75 3.44 3.44 0 011.8.51l.14-.3a3.73 3.73 0 00-1.9-.49zM20.57 86.74a2.79 2.79 0 01-3-2.88 4.25 4.25 0 014.19-4.17 2.81 2.81 0 013 2.89 4.25 4.25 0 01-4.19 4.16zm1.18-6.63a3.8 3.8 0 00-3.69 3.75 2.36 2.36 0 002.54 2.46 3.82 3.82 0 003.71-3.76 2.36 2.36 0 00-2.56-2.45z"/>
        <path class="cls-1"
              d="M20.57 86.81a2.86 2.86 0 01-3-3 4.31 4.31 0 014.25-4.24 2.88 2.88 0 013.06 3 4.31 4.31 0 01-4.31 4.24zm1.21-7a4.17 4.17 0 00-4.12 4.1 2.71 2.71 0 002.91 2.81 4.17 4.17 0 004.14-4.09 2.76 2.76 0 00-2.93-2.87zm-1.18 6.58a2.44 2.44 0 01-2.6-2.53A3.9 3.9 0 0121.75 80a2.44 2.44 0 012.63 2.52 3.91 3.91 0 01-3.78 3.87zm1.15-6.21a3.75 3.75 0 00-3.62 3.68 2.28 2.28 0 002.47 2.39 3.76 3.76 0 003.64-3.69 2.28 2.28 0 00-2.49-2.38zM38.5 81.59l-.85 5h-.46l.85-5a1.63 1.63 0 000-.31 1.09 1.09 0 00-1.23-1.15c-1.85 0-3.18 2.25-3.45 3.87l-.45 2.63h-.46l.86-5a1.63 1.63 0 000-.31 1.1 1.1 0 00-1.24-1.15c-1.85 0-3.16 2.27-3.44 3.87l-.46 2.63h-.47l1.17-6.77h.46L29 82.35a3.63 3.63 0 013.22-2.66 1.47 1.47 0 011.61 1.53 7.75 7.75 0 01-.16 1.15 3.65 3.65 0 013.23-2.68 1.46 1.46 0 011.61 1.53 2.31 2.31 0 01-.01.37z"/>
        <path class="cls-1"
              d="M37.65 86.67h-.46a.07.07 0 010-.06l.85-5a1.53 1.53 0 000-.3 1 1 0 00-1.16-1.09c-1.79 0-3.12 2.22-3.39 3.82L33 86.62a.08.08 0 01-.07 0h-.52a.13.13 0 010-.06l.87-5v-.3a1 1 0 00-1.17-1.09c-1.84 0-3.1 2.28-3.37 3.82l-.47 2.64a.06.06 0 01-.06 0h-.52a.07.07 0 010-.06l1.16-6.78a.08.08 0 01.07 0h.51a.07.07 0 010 .06l-.35 2a3.57 3.57 0 013.1-2.27 1.54 1.54 0 011.68 1.6 3.14 3.14 0 01-.08.67 3.61 3.61 0 013.11-2.27 1.52 1.52 0 011.68 1.6 2.25 2.25 0 010 .38l-.85 5a.07.07 0 01-.07.11zm-.38-.13h.32l.85-5v-.36a1.4 1.4 0 00-1.55-1.46 3.62 3.62 0 00-3.17 2.63.06.06 0 01-.06 0l.06-.33a4.6 4.6 0 00.1-.81 1.39 1.39 0 00-1.54-1.46 3.6 3.6 0 00-3.16 2.62.07.07 0 01-.06 0h-.05a.07.07 0 010-.06l.42-2.45H29l-1.15 6.65h.33l.44-2.51c.28-1.63 1.59-4 3.51-4a1.16 1.16 0 011.31 1.22 1.66 1.66 0 010 .32l-.85 5h.32l.41-2.54c.28-1.69 1.68-4 3.52-4a1.16 1.16 0 011.3 1.22 3.16 3.16 0 010 .32zm1.23-5zM52.68 81.59l-.85 5h-.46l.85-5v-.31A1.09 1.09 0 0051 80.1c-1.85 0-3.19 2.25-3.46 3.87l-.44 2.63h-.47l.87-5v-.31a1.1 1.1 0 00-1.24-1.15c-1.86 0-3.16 2.27-3.44 3.87l-.42 2.59h-.46l1.17-6.77h.46l-.43 2.52a3.62 3.62 0 013.21-2.66A1.47 1.47 0 0148 81.22a7.79 7.79 0 01-.17 1.15 3.67 3.67 0 013.24-2.68 1.46 1.46 0 011.61 1.53 2.31 2.31 0 010 .37z"/>
        <path class="cls-1"
              d="M51.83 86.67h-.52a.13.13 0 010-.06l.85-5a1.53 1.53 0 000-.3A1 1 0 0051 80.16c-1.79 0-3.12 2.22-3.39 3.82l-.45 2.64a.06.06 0 01-.06 0h-.47a.07.07 0 010-.06l.86-5a1.53 1.53 0 000-.3 1 1 0 00-1.17-1.09c-1.84 0-3.1 2.28-3.38 3.82l-.46 2.64a.07.07 0 01-.07 0h-.46a.07.07 0 010-.06L43 79.81h.53a.14.14 0 010 .06l-.36 2a3.59 3.59 0 013.1-2.27 1.54 1.54 0 011.69 1.6 3.94 3.94 0 01-.08.67 3.59 3.59 0 013.11-2.27 1.52 1.52 0 011.68 1.6v.38l-.85 5a.08.08 0 01.01.09zm-.38-.13h.32l.84-5a2.1 2.1 0 000-.36 1.39 1.39 0 00-1.54-1.46 3.62 3.62 0 00-3.17 2.63.08.08 0 01-.07 0c0-.11 0-.22.06-.33a4.6 4.6 0 00.1-.81 1.4 1.4 0 00-1.55-1.46 3.6 3.6 0 00-3.15 2.62.08.08 0 01-.06 0h-.06a.13.13 0 010-.06l.42-2.45h-.33L42 86.54h.33L42.8 84c.28-1.59 1.59-3.93 3.51-3.93a1.16 1.16 0 011.31 1.22 3.16 3.16 0 010 .32l-.86 5h.33L47.5 84c.27-1.69 1.65-4 3.5-4a1.16 1.16 0 011.3 1.22 3.16 3.16 0 010 .32zm1.23-5zM60.93 86.6h-.46l.53-2.82a3.9 3.9 0 01-3.57 3A1.67 1.67 0 0155.52 85a1.8 1.8 0 010-.4l.84-4.8h.46L56 84.67a2.07 2.07 0 000 .33 1.28 1.28 0 001.43 1.31c2.1 0 3.49-2.29 3.82-4.11l.43-2.39h.47z"/>
        <path class="cls-1"
              d="M57.36 86.81A1.73 1.73 0 0155.45 85a2.08 2.08 0 010-.42l.84-4.8a.07.07 0 01.07 0h.46a.14.14 0 010 .06l-.86 4.88a2.83 2.83 0 000 .3 1.21 1.21 0 001.36 1.25c2 0 3.4-2.1 3.75-4.06l.44-2.4a.06.06 0 01.06 0h.52a.07.07 0 010 .06L61 86.62h-.53a.07.07 0 010-.06l.39-2.27a3.88 3.88 0 01-3.5 2.52zm-.92-6.92l-.83 4.75a2.55 2.55 0 000 .39 1.6 1.6 0 001.77 1.64 3.87 3.87 0 003.51-2.91.06.06 0 01.06-.05h.06a.13.13 0 010 .06l-.48 2.75h.33L62 79.89h-.33l-.42 2.34c-.37 2-1.85 4.17-3.89 4.17A1.34 1.34 0 0155.9 85a1.73 1.73 0 010-.32l.84-4.77zM72.11 81.8l-.86 4.8h-.46l.87-4.84v-.35a1.28 1.28 0 00-1.44-1.31c-2.11 0-3.5 2.25-3.83 4.11L66 86.6h-.46l1.17-6.77h.46l-.49 2.82a3.93 3.93 0 013.59-3 1.67 1.67 0 011.84 1.71 1.8 1.8 0 010 .44z"/>
        <path class="cls-1"
              d="M71.25 86.67h-.51a.14.14 0 010-.06l.87-4.87a1.63 1.63 0 000-.31 1.22 1.22 0 00-1.37-1.25c-2 0-3.41 2.09-3.76 4.06l-.42 2.4a.07.07 0 01-.07 0h-.51a.07.07 0 010-.06l1.17-6.78h.53a.14.14 0 010 .06l-.4 2.26a3.9 3.9 0 013.46-2.48 1.72 1.72 0 011.9 1.78 1.93 1.93 0 010 .41l-.85 4.81a.07.07 0 01-.04.03zm-.38-.13h.33l.8-4.75a1.71 1.71 0 000-.39 1.59 1.59 0 00-1.77-1.64 3.88 3.88 0 00-3.53 2.91.06.06 0 01-.06 0h-.06a.13.13 0 010-.06l.48-2.75h-.33l-1.14 6.65H66l.41-2.34c.35-2 1.84-4.17 3.89-4.17a1.35 1.35 0 011.51 1.38v.33zM76.55 86.6h-.47l1.17-6.77h.46zm1.18-8.17c-.15 0-.39-.32-.39-.46s.39-.45.52-.45.39.33.39.47-.39.44-.52.44z"/>
        <path class="cls-1"
              d="M76.55 86.67h-.47a.07.07 0 010-.06l1.16-6.78a.08.08 0 01.07 0h.51a.07.07 0 010 .06l-1.17 6.78a.06.06 0 01-.1 0zm-.39-.13h.33l1.14-6.65h-.32zm1.57-8c-.2 0-.46-.36-.46-.53s.42-.52.59-.52.46.37.46.54-.43.47-.59.47zm.13-.91c-.1 0-.45.29-.45.38s.21.4.32.4a.94.94 0 00.45-.38c0-.15-.18-.44-.32-.44zM86.48 80.23H84l-.85 4.86v.33c0 .61.39.82 1 .82a2.23 2.23 0 00.84-.15l-.08.42a2.12 2.12 0 01-.84.14c-.76 0-1.34-.38-1.34-1.2a2.19 2.19 0 010-.36l.85-4.86H82.2l.06-.4h1.36l.28-1.59.5-.24-.32 1.83h2.59z"/>
        <path class="cls-1"
              d="M84 86.72a1.24 1.24 0 01-1.41-1.27 2.07 2.07 0 010-.35l.84-4.78H82.2l.06-.4a.07.07 0 01.07-.06h1.3l.28-1.53.49-.24a.06.06 0 01.07 0v.06l-.3 1.75h2.51a.06.06 0 01.06 0 .08.08 0 010 .07l-.19.4a.08.08 0 01-.06 0h-2.4l-.84 4.8a2.91 2.91 0 000 .32c0 .52.28.76.89.76a2.12 2.12 0 00.81-.15.09.09 0 01.05-.1.06.06 0 010 .07l-.07.41a2.33 2.33 0 01-.93.24zm-1.74-6.56h1.28l-.86 4.88v.33c0 .72.46 1.13 1.27 1.13a2.49 2.49 0 00.78-.11v-.27a2.48 2.48 0 01-.75.11c-.68 0-1-.3-1-.89a3.07 3.07 0 010-.34L84 80.22a.06.06 0 01.06-.06h2.42l.13-.27h-2.53a.07.07 0 010-.06l.29-1.69-.35.16-.27 1.56a.08.08 0 01-.07 0h-1.3zM93 86.09c-1.31 2.25-2.51 3.36-4.1 4l-.33-.34a7.22 7.22 0 003.73-3.26l-1.6-6.62h.46l1 4.07c.17.64.33 1.37.45 2l1.19-2 2.37-4.07h.48z"/>
        <path class="cls-1"
              d="M88.88 90.11l-.33-.33v-.06a7.26 7.26 0 003.68-3.21l-1.6-6.6a.07.07 0 010-.06h.51a.08.08 0 01.07 0l1 4.07c.17.64.31 1.32.43 1.91l1.11-1.93 2.38-4.07a.05.05 0 01.05 0h.48a.06.06 0 01.06 0 .09.09 0 010 .07L93 86.13c-1.29 2.21-2.49 3.36-4.13 4zm-.2-.37l.22.23c1.59-.62 2.76-1.75 4-3.91l3.63-6.17h-.33l-2.36 4c-.32.57-.82 1.42-1.18 2a.06.06 0 01-.06 0 .06.06 0 01-.06-.05c-.11-.63-.27-1.35-.45-2l-1-4h-.32l1.58 6.55a7.47 7.47 0 01-3.67 3.35zM109.75 86.6h-.47l.47-2.67a3.89 3.89 0 01-3.62 2.81 2 2 0 01-2.16-2.19 3.31 3.31 0 010-.55 5.13 5.13 0 015-4.29 4.25 4.25 0 011.93.41zm-.86-6.49a4.71 4.71 0 00-4.44 3.89 2.35 2.35 0 000 .47 1.66 1.66 0 001.76 1.82c1.56 0 3.4-1.39 3.88-4.14l.31-1.81a3.59 3.59 0 00-1.51-.23z"/>
        <path class="cls-1"
              d="M106.1 86.81a2.09 2.09 0 01-2.23-2.26 3.43 3.43 0 010-.56 5.17 5.17 0 015-4.35 4.15 4.15 0 012 .43.07.07 0 010 .07l-1.13 6.48a.06.06 0 01-.06 0h-.47a.07.07 0 010-.06l.38-2.19a3.9 3.9 0 01-3.49 2.44zm2.84-7a5 5 0 00-4.89 4.19 3.19 3.19 0 000 .54 2 2 0 002.09 2.12 3.83 3.83 0 003.55-2.77.07.07 0 01.07 0 .07.07 0 010 .06l-.45 2.6h.33l1.11-6.38a4.22 4.22 0 00-1.81-.4zm-2.77 6.63a1.73 1.73 0 01-1.83-1.89 1.86 1.86 0 010-.48 4.76 4.76 0 014.5-4 3.67 3.67 0 011.5.28.07.07 0 010 .07l-.32 1.81c-.27 2.06-1.74 4.17-3.85 4.17zm2.72-6.22a4.61 4.61 0 00-4.37 3.88 2.14 2.14 0 000 .45 1.62 1.62 0 001.7 1.76c1.54 0 3.34-1.41 3.81-4.09l.31-1.76a3.75 3.75 0 00-1.45-.28zM120.62 81.8l-.85 4.8h-.47l.87-4.84a2.07 2.07 0 000-.35 1.27 1.27 0 00-1.43-1.31c-2.11 0-3.51 2.25-3.83 4.11l-.42 2.39h-.47l1.17-6.77h.46l-.49 2.82a3.93 3.93 0 013.59-3 1.66 1.66 0 011.84 1.71 1.8 1.8 0 01.03.44z"/>
        <path class="cls-1"
              d="M119.77 86.67h-.47a.07.07 0 010-.06l.87-4.87v-.31a1.21 1.21 0 00-1.36-1.25c-2 0-3.42 2.09-3.77 4.06l-.42 2.4a.06.06 0 01-.06 0h-.47a.07.07 0 010-.06l1.16-6.78a.08.08 0 01.07 0h.46a.07.07 0 010 .06l-.4 2.26a3.91 3.91 0 013.46-2.48 1.73 1.73 0 011.91 1.78 1.93 1.93 0 010 .41l-.86 4.81a.06.06 0 01-.12.03zm-.38-.13h.32l.84-4.75a1.71 1.71 0 000-.39 1.59 1.59 0 00-1.77-1.64 3.89 3.89 0 00-3.53 2.91.06.06 0 01-.06 0 .14.14 0 010-.06l.48-2.75h-.32l-1.15 6.65h.33l.41-2.34c.36-2 1.84-4.17 3.9-4.17a1.34 1.34 0 011.5 1.38 1.76 1.76 0 010 .33zM129 86.6h-.46l.46-2.67a3.89 3.89 0 01-3.62 2.81 2 2 0 01-2.12-2.25c0-.21 0-.43.05-.63a5.07 5.07 0 014.91-4.06 4.5 4.5 0 011.48.23l.7-4.03h.47zm-.85-6.4a4.59 4.59 0 00-4.4 3.73 2.85 2.85 0 00-.06.52 1.68 1.68 0 001.75 1.88c1.56 0 3.38-1.37 3.86-4.14l.3-1.72a3.69 3.69 0 00-1.44-.27z"/>
        <path class="cls-1"
              d="M125.36 86.81a2.08 2.08 0 01-2.19-2.32 4.48 4.48 0 01.06-.64 5.11 5.11 0 015-4.12 4.57 4.57 0 011.43.21l.71-4a.06.06 0 01.06-.06h.47l-1.85 10.66a.08.08 0 01-.07 0h-.52a.13.13 0 010-.06l.38-2.17a3.87 3.87 0 01-3.48 2.5zm2.84-7a5 5 0 00-4.84 4 3.94 3.94 0 00-.06.61 2 2 0 002.06 2.18 3.8 3.8 0 003.56-2.77.07.07 0 01.06 0h.05a.14.14 0 010 .06l-.45 2.6h.42L130.79 76h-.33l-.71 4a.07.07 0 01-.06 0 4.14 4.14 0 00-1.49-.14zm-2.75 6.54a1.76 1.76 0 01-1.82-2 3.31 3.31 0 01.06-.54 4.66 4.66 0 014.47-3.78 3.76 3.76 0 011.48.28.06.06 0 010 .07l-.29 1.72c-.47 2.99-2.35 4.3-3.9 4.3zm2.71-6.13a4.51 4.51 0 00-4.34 3.67 2.94 2.94 0 000 .51 1.64 1.64 0 001.68 1.82c1.49 0 3.31-1.28 3.79-4.09l.29-1.67a3.83 3.83 0 00-1.42-.19zM147.36 82.55a5.08 5.08 0 01-4.91 4 4.27 4.27 0 01-1.48-.26l-.66 3.73h-.46l1.78-10.23h.46l-.46 2.67a3.81 3.81 0 013.56-2.81A2.08 2.08 0 01147.4 82a3.56 3.56 0 01-.04.55zm-2.23-2.45c-1.6 0-3.34 1.46-3.8 4.14l-.28 1.66a3.86 3.86 0 001.45.28 4.68 4.68 0 004.4-3.69 2.67 2.67 0 000-.5 1.73 1.73 0 00-1.77-1.89z"/>
        <path class="cls-1"
              d="M140.31 90.13h-.46l1.78-10.24a.08.08 0 01.07 0h.46a.07.07 0 010 .06l-.38 2.05a3.8 3.8 0 013.44-2.4 2.15 2.15 0 012.25 2.4 3.6 3.6 0 010 .58 5.17 5.17 0 01-5 4.1 4.52 4.52 0 01-1.43-.24l-.64 3.65a.07.07 0 01-.09.04zm-.38-.14h.33l.64-3.67h.1a4.39 4.39 0 001.46.25 5 5 0 004.84-4 3.33 3.33 0 00.05-.56 2 2 0 00-2.12-2.22 3.78 3.78 0 00-3.5 2.77.07.07 0 01-.06 0 .07.07 0 010-.06l.45-2.6h-.32zm7.43-7.44zm-4.86 3.7A3.94 3.94 0 01141 86a.06.06 0 010-.07l.28-1.66c.5-2.89 2.36-4.2 3.87-4.2A1.79 1.79 0 01147 82a2.59 2.59 0 010 .51 4.73 4.73 0 01-4.5 3.74zm-1.38-.39a3.85 3.85 0 001.38.26 4.61 4.61 0 004.33-3.64 2.49 2.49 0 000-.49 1.67 1.67 0 00-1.74-1.83c-1.46 0-3.25 1.28-3.73 4.09zM155.46 80.27a3.34 3.34 0 00-.49 0c-1.41 0-3.13 1.74-3.61 4.55l-.31 1.82h-.46l1.16-6.77h.47l-.54 3.06c.42-1.58 1.81-3.16 3.33-3.16a2.75 2.75 0 01.62.08z"/>
        <path class="cls-1"
              d="M151.05 86.67h-.51a.07.07 0 010-.06l1.17-6.78a.06.06 0 01.06 0h.52a.07.07 0 010 .06l-.43 2.46a3.89 3.89 0 013.2-2.63 3.22 3.22 0 01.64.07.13.13 0 010 .06l-.21.46a.09.09 0 01-.08 0 2.09 2.09 0 00-.48 0c-1.36 0-3.06 1.68-3.54 4.49l-.31 1.83a.08.08 0 01-.03.04zm-.38-.13h.33l.31-1.77c.49-2.88 2.25-4.61 3.67-4.61a2.38 2.38 0 01.46 0l.15-.34a2.33 2.33 0 00-.53-.06c-1.51 0-2.87 1.61-3.26 3.11a.08.08 0 01-.07 0h-.05a.07.07 0 010-.06l.53-3h-.33zM160.77 86.74a2.78 2.78 0 01-3-2.88 4.25 4.25 0 014.23-4.17 2.81 2.81 0 013 2.89 4.25 4.25 0 01-4.23 4.16zm1.23-6.63a3.8 3.8 0 00-3.69 3.75 2.36 2.36 0 002.54 2.46 3.82 3.82 0 003.71-3.76 2.36 2.36 0 00-2.56-2.45z"/>
        <path class="cls-1"
              d="M160.77 86.81a2.86 2.86 0 01-3-3 4.31 4.31 0 014.23-4.19 2.89 2.89 0 013.07 3 4.31 4.31 0 01-4.3 4.19zm1.21-7a4.17 4.17 0 00-4.12 4.1 2.71 2.71 0 002.91 2.81 4.16 4.16 0 004.14-4.09 2.75 2.75 0 00-2.91-2.87zm-1.18 6.63a2.44 2.44 0 01-2.61-2.53A3.9 3.9 0 01162 80a2.43 2.43 0 012.63 2.52 3.91 3.91 0 01-3.83 3.87zm1.2-6.26a3.75 3.75 0 00-3.62 3.68 2.28 2.28 0 002.47 2.39 3.77 3.77 0 003.65-3.69 2.29 2.29 0 00-2.5-2.38zM170 87.43a3 3 0 01-2.1 2.6l-.28-.32a2.59 2.59 0 001.93-2.33l1.3-7.55h.47zm1.33-9c-.15 0-.39-.32-.39-.46s.39-.45.53-.45.38.33.38.47-.38.44-.52.44z"/>
        <path class="cls-1"
              d="M167.9 90.1h-.05l-.28-.31a.06.06 0 010-.07 2.51 2.51 0 001.88-2.28l1.31-7.56a.06.06 0 01.06 0h.52a.13.13 0 010 .06l-1.32 7.6a3.06 3.06 0 01-2.14 2.66zm-.16-.35l.19.2a2.93 2.93 0 002-2.54l1.31-7.52h-.33l-1.29 7.5a2.65 2.65 0 01-1.88 2.36zm2.26-2.32zm1.33-8.93c-.2 0-.46-.36-.46-.53s.42-.52.6-.52.45.37.45.54-.42.51-.59.51zm.14-.91c-.11 0-.46.29-.46.38s.22.4.32.4a.92.92 0 00.46-.38c0-.11-.22-.4-.32-.4zM181.64 81.43c-.39 2-3 2.51-4.73 2.51h-.71a2.16 2.16 0 002.32 2.33 3.4 3.4 0 002-.61l-.09.52a3.29 3.29 0 01-1.91.51 2.55 2.55 0 01-2.74-2.74 4.28 4.28 0 014.15-4.25c.86 0 1.78.41 1.78 1.39-.04.11-.06.23-.07.34zm-1.79-1.32a3.8 3.8 0 00-3.62 3.43h.63c1.45 0 4-.39 4.33-2.17a2.13 2.13 0 000-.25c.03-.74-.69-1.01-1.34-1.01z"/>
        <path class="cls-1"
              d="M178.48 86.75a2.64 2.64 0 01-2.81-2.81 4.33 4.33 0 014.22-4.32c.92 0 1.84.45 1.84 1.46a2 2 0 010 .36c-.39 1.89-2.73 2.56-4.82 2.56h-.64a2.09 2.09 0 002.25 2.19 3.29 3.29 0 001.92-.6h.08a.08.08 0 010 .07l-.09.52a3.35 3.35 0 01-1.95.57zm1.41-7a4.18 4.18 0 00-4.08 4.18 2.47 2.47 0 002.67 2.67 3.26 3.26 0 001.85-.48l.06-.34a3.46 3.46 0 01-1.87.54 2.22 2.22 0 01-2.38-2.4v-.05c0-.05 0 0 .05 0h.7c2 0 4.31-.64 4.66-2.45a3.31 3.31 0 000-.34c.05-.97-.87-1.32-1.66-1.32zm1.75 1.67zm-4.78 2.19h-.63a3.86 3.86 0 013.62-3.61c.66 0 1.43.29 1.43 1.09a1.79 1.79 0 010 .23c-.44 2.19-3.76 2.3-4.42 2.3zm-.55-.15h.55c.65 0 3.87-.1 4.26-2.11a1.36 1.36 0 000-.2c0-.7-.67-.95-1.3-.95a3.71 3.71 0 00-3.51 3.27zM191.48 80.71a3.32 3.32 0 00-1.83-.54 3.69 3.69 0 00-3.65 3.68 2.33 2.33 0 002.55 2.42 4 4 0 002.08-.53l-.1.49a4.21 4.21 0 01-2 .45 2.72 2.72 0 01-3-2.8 4.12 4.12 0 014.18-4.13 3.7 3.7 0 012 .54z"/>
        <path class="cls-1"
              d="M188.48 86.75a2.8 2.8 0 01-3-2.87 4.19 4.19 0 014.25-4.2 3.82 3.82 0 012 .55.07.07 0 010 .09l-.19.42h-.06a3.23 3.23 0 00-1.78-.52 3.61 3.61 0 00-3.6 3.61 2.28 2.28 0 002.49 2.36 3.87 3.87 0 002.05-.53h.07v.07l-.11.49a.05.05 0 010 .05 4.17 4.17 0 01-2.12.48zm1.22-6.93a4 4 0 00-4.11 4.06 2.64 2.64 0 002.89 2.73 4.07 4.07 0 002-.42l.07-.32a4.06 4.06 0 01-2 .47 2.4 2.4 0 01-2.62-2.49 3.74 3.74 0 013.73-3.75 3.44 3.44 0 011.8.51l.14-.3a3.73 3.73 0 00-1.9-.49zM199.91 80.23h-2.45l-.86 4.86v.33c0 .61.39.82 1 .82a2.23 2.23 0 00.84-.15l-.08.42a2.1 2.1 0 01-.83.14c-.77 0-1.35-.38-1.35-1.2v-.36l.85-4.86h-1.36l.06-.4h1.36l.29-1.59.49-.24-.31 1.83h2.58z"/>
        <path class="cls-1"
              d="M197.46 86.72a1.24 1.24 0 01-1.46-1.27v-.35l.84-4.78h-1.28l.06-.4a.07.07 0 01.07-.06H197l.27-1.53.49-.24a.06.06 0 01.07 0 .07.07 0 010 .06l-.3 1.75h2.5a.06.06 0 01.06 0 .08.08 0 010 .07l-.2.4a.07.07 0 01-.06 0h-2.4l-.84 4.8a2.91 2.91 0 000 .32c0 .52.28.76.89.76a2.12 2.12 0 00.81-.15.09.09 0 01.07 0 .09.09 0 010 .07l-.08.41a2.29 2.29 0 01-.82.14zm-1.75-6.56H197l-.86 4.88v.33c0 .72.46 1.13 1.28 1.13a2.47 2.47 0 00.77-.11l.05-.27a2.48 2.48 0 01-.75.11c-.68 0-1-.3-1-.89a1.72 1.72 0 010-.34l.85-4.86a.07.07 0 01.07-.06h2.41l.13-.27h-2.54a.13.13 0 010-.06l.29-1.69-.34.16-.28 1.56a.07.07 0 01-.07 0h-1.3zM214.48 80.32a2.91 2.91 0 01-.32 0 1.58 1.58 0 01.62 1.29 2.23 2.23 0 010 .34 2.77 2.77 0 01-2.79 2.2c-1 0-1.53.36-1.59.73v.06c0 .29.32.48.72.62l1.71.59c.91.32 1.42.8 1.42 1.56a2.23 2.23 0 01-.05.36c-.19 1.14-1.55 2-3.26 2-1.56 0-2.56-.82-2.56-1.92v-.31a2.56 2.56 0 012-2.17l-.51-.6a1.28 1.28 0 011.35-1.13 1.65 1.65 0 01-1.32-1.67 1.8 1.8 0 010-.39 2.77 2.77 0 012.82-2.18 2.24 2.24 0 01.82.14 2.06 2.06 0 00.78.13 2.47 2.47 0 001.12-.25l.07.39a2.64 2.64 0 01-1.03.21zm-1.89 6.21l-1.72-.6a2.36 2.36 0 00-2.05 1.94 1 1 0 000 .24c0 .84.78 1.55 2.16 1.55a2.68 2.68 0 002.73-1.66 1.21 1.21 0 000-.25c.03-.64-.42-.98-1.12-1.22zm.08-6.43a2.33 2.33 0 00-2.31 1.84 3 3 0 000 .31 1.5 1.5 0 001.64 1.46 2.38 2.38 0 002.28-1.85 2.77 2.77 0 000-.3 1.51 1.51 0 00-1.61-1.46z"/>
        <path class="cls-1"
              d="M210.9 90.13c-1.55 0-2.63-.82-2.63-2a1.87 1.87 0 010-.32 2.6 2.6 0 011.92-2.2l-.43-.51a.07.07 0 010-.06 1.28 1.28 0 011.1-1.15 1.7 1.7 0 01-1.07-1.64 1.89 1.89 0 010-.4 2.85 2.85 0 012.88-2.24 2.38 2.38 0 01.84.14 1.92 1.92 0 00.76.13 2.37 2.37 0 001.09-.24.07.07 0 01.06 0l.08.39a.06.06 0 010 .07 2.49 2.49 0 01-1.07.24h-.11a1.72 1.72 0 01.47 1.2 2.36 2.36 0 010 .35 2.86 2.86 0 01-2.79 2.3c-1 0-1.47.34-1.52.67 0 .22.23.4.67.55l1.71.6c1 .34 1.46.87 1.46 1.62a2.11 2.11 0 010 .25.5.5 0 000 .12c-.32 1.23-1.72 2.13-3.42 2.13zm-1-5.09l.48.58a.08.08 0 010 .07.09.09 0 01-.06 0 2.46 2.46 0 00-1.93 2.11 1.69 1.69 0 000 .3c0 1.09 1 1.85 2.49 1.85 1.63 0 3-.84 3.19-2a.5.5 0 000-.12 1 1 0 000-.23c0-.7-.44-1.17-1.38-1.49l-1.7-.6c-.51-.17-.77-.4-.77-.68v-.06c.07-.4.6-.8 1.66-.8a2.73 2.73 0 002.73-2.14v-.33a1.55 1.55 0 00-.59-1.24.08.08 0 010-.08.07.07 0 01.06 0 2.16 2.16 0 00.31 0 2.57 2.57 0 001-.19v-.25a2.59 2.59 0 01-1.07.22 2.08 2.08 0 01-.8-.14 2.25 2.25 0 00-.8-.13 2.7 2.7 0 00-2.72 2.2 1.63 1.63 0 000 .37 1.58 1.58 0 001.26 1.6.07.07 0 01.06.07.06.06 0 01-.06.06c-1.04.09-1.26.64-1.33 1.01zm1 4.68c-1.31 0-2.23-.66-2.23-1.61a1.1 1.1 0 010-.25 2.42 2.42 0 012.12-2l1.72.6c.52.18 1.2.5 1.2 1.27a1.3 1.3 0 010 .26 2.76 2.76 0 01-2.71 1.73zm-.04-3.72a2.3 2.3 0 00-2 1.89 1.62 1.62 0 000 .22c0 .87.86 1.48 2.09 1.48a2.63 2.63 0 002.7-1.62v-.24c0-.53-.35-.88-1.11-1.14zm1.14-2.22a1.57 1.57 0 01-1.76-1.53 1.75 1.75 0 010-.32 2.4 2.4 0 012.37-1.9 1.58 1.58 0 011.72 1.53 2.46 2.46 0 010 .28 2.42 2.42 0 01-2.33 1.94zm.65-3.62a2.28 2.28 0 00-2.22 1.84 1.53 1.53 0 000 .3 1.44 1.44 0 001.62 1.4 2.29 2.29 0 002.21-1.8 1.15 1.15 0 000-.26 1.44 1.44 0 00-1.59-1.48zM222.87 80.27a3.49 3.49 0 00-.5 0c-1.4 0-3.12 1.74-3.6 4.55l-.32 1.82H218l1.16-6.77h.47l-.54 3.06c.41-1.58 1.81-3.16 3.32-3.16a2.92 2.92 0 01.63.08z"/>
        <path class="cls-1"
              d="M218.45 86.67h-.5a.07.07 0 010-.06l1.17-6.78a.06.06 0 01.06 0h.47a.14.14 0 010 .06l-.44 2.46a3.89 3.89 0 013.2-2.63 3.22 3.22 0 01.64.07.06.06 0 010 .06l-.21.46a.08.08 0 01-.08 0 2.09 2.09 0 00-.48 0c-1.36 0-3.06 1.68-3.54 4.49l-.31 1.83a.07.07 0 01.02.04zm-.38-.13h.33l.3-1.77c.49-2.88 2.25-4.61 3.67-4.61a2.38 2.38 0 01.46 0l.15-.34a2.33 2.33 0 00-.53-.06c-1.51 0-2.87 1.61-3.26 3.11a.06.06 0 01-.06 0h-.05a.14.14 0 010-.06l.53-3h-.33zM227.87 86.74a2.78 2.78 0 01-3-2.88 4.25 4.25 0 014.19-4.17 2.81 2.81 0 013 2.89 4.25 4.25 0 01-4.19 4.16zm1.19-6.63a3.8 3.8 0 00-3.7 3.75 2.36 2.36 0 002.55 2.46 3.83 3.83 0 003.71-3.76 2.37 2.37 0 00-2.56-2.45z"/>
        <path class="cls-1"
              d="M227.87 86.81a2.86 2.86 0 01-3-3 4.31 4.31 0 014.26-4.24 2.88 2.88 0 013.06 3 4.31 4.31 0 01-4.32 4.24zm1.22-7a4.16 4.16 0 00-4.12 4.1 2.7 2.7 0 002.9 2.81 4.16 4.16 0 004.13-4.14 2.75 2.75 0 00-2.91-2.82zm-1.18 6.63a2.44 2.44 0 01-2.62-2.53 3.9 3.9 0 013.77-3.91 2.43 2.43 0 012.62 2.52 3.9 3.9 0 01-3.77 3.87zm1.15-6.21a3.75 3.75 0 00-3.63 3.68 2.28 2.28 0 002.48 2.39 3.76 3.76 0 003.64-3.69 2.28 2.28 0 00-2.49-2.43zM240.78 86.6h-.46l.49-2.82a3.9 3.9 0 01-3.57 3 1.67 1.67 0 01-1.87-1.78 1.8 1.8 0 010-.4l.83-4.8h.47l-.86 4.84v.35a1.29 1.29 0 001.44 1.31c2.1 0 3.49-2.29 3.82-4.11l.43-2.39h.5z"/>
        <path class="cls-1"
              d="M237.21 86.81A1.73 1.73 0 01235.3 85a2.08 2.08 0 010-.42l.84-4.8a.06.06 0 01.06 0h.52a.07.07 0 010 .06l-.85 4.88a1.45 1.45 0 000 .3 1.22 1.22 0 001.37 1.25c2 0 3.39-2.1 3.75-4.06l.43-2.4a.08.08 0 01.07 0h.51a.07.07 0 010 .06l-1.18 6.78a.08.08 0 01-.07 0h-.46a.07.07 0 010-.06l.4-2.27a3.88 3.88 0 01-3.48 2.49zm-.92-6.92l-.83 4.75a1.71 1.71 0 000 .39 1.6 1.6 0 001.78 1.64 3.87 3.87 0 003.51-2.91.06.06 0 01.06-.05h.05a.07.07 0 010 .06l-.48 2.75h.32l1.16-6.65h-.32l-.43 2.34c-.36 2-1.85 4.17-3.88 4.17a1.34 1.34 0 01-1.5-1.38v-.32l.84-4.77zM252.28 82.55a5.08 5.08 0 01-4.9 4 4.32 4.32 0 01-1.49-.26l-.65 3.73h-.47l1.78-10.23h.45l-.47 2.67a3.83 3.83 0 013.56-2.81 2.09 2.09 0 012.24 2.35 3.55 3.55 0 01-.05.55zm-2.23-2.45c-1.6 0-3.33 1.46-3.8 4.14L246 85.9a3.9 3.9 0 001.45.28 4.66 4.66 0 004.4-3.69 2.67 2.67 0 000-.5 1.73 1.73 0 00-1.8-1.89z"/>
        <path class="cls-1"
              d="M245.24 90.13h-.47a.05.05 0 01-.05 0l1.78-10.24a.06.06 0 01.06 0h.44a.07.07 0 010 .06l-.29 2.05a3.8 3.8 0 013.43-2.4 2.16 2.16 0 012.26 2.4 3.58 3.58 0 01-.05.58 5.15 5.15 0 01-5 4.1 4.47 4.47 0 01-1.43-.24l-.65 3.65a.06.06 0 01-.03.04zm-.39-.14h.33l.65-3.67h.06a4.34 4.34 0 001.46.25 5 5 0 004.84-4 3.36 3.36 0 000-.56 2 2 0 00-2.12-2.22 3.76 3.76 0 00-3.49 2.77.08.08 0 01-.07 0h-.05a.07.07 0 010-.06l.45-2.6h-.33zm7.43-7.44zm-4.86 3.7a4 4 0 01-1.48-.29.07.07 0 010-.07l.29-1.66c.5-2.89 2.35-4.2 3.86-4.2a1.79 1.79 0 011.88 2 2.64 2.64 0 010 .51 4.75 4.75 0 01-4.55 3.71zm-1.42-.39a3.94 3.94 0 001.38.26 4.6 4.6 0 004.33-3.64 2.46 2.46 0 00.05-.49 1.67 1.67 0 00-1.75-1.83c-1.45 0-3.24 1.28-3.73 4.09zM257.78 88h-.27a3.1 3.1 0 00.72-1.33.66.66 0 01-.43-.47c0-.16.43-.52.6-.52s.45.33.45.49a4.13 4.13 0 01-1.07 1.83z"/>
        <path class="cls-1"
              d="M257.78 88.11h-.33a.09.09 0 010-.07 3 3 0 00.69-1.24.69.69 0 01-.42-.51c0-.2.47-.59.67-.59s.51.37.51.56a4.27 4.27 0 01-1.08 1.91zm-.13-.15h.11a4.09 4.09 0 001-1.79c0-.13-.26-.42-.38-.42s-.53.33-.53.45a.55.55 0 00.37.4s.07 0 .06.08a3.2 3.2 0 01-.63 1.32zM266.34 86.6h-.47l1.13-6.77h.46zm1.18-8.17c-.15 0-.39-.32-.39-.46s.39-.45.52-.45.39.33.39.47-.39.44-.52.44z"/>
        <path class="cls-1"
              d="M266.34 86.67h-.52a.07.07 0 010-.06l1.18-6.8a.08.08 0 01.07 0h.52a.13.13 0 010 .06l-1.17 6.78a.06.06 0 01-.08.02zm-.39-.13h.33l1.14-6.65h-.32zm1.57-8c-.2 0-.46-.36-.46-.53s.42-.52.59-.52.46.37.46.54-.42.47-.59.47zm.13-.91c-.1 0-.45.29-.45.38s.21.4.32.4A.92.92 0 00268 78c0-.12-.24-.41-.35-.41zM278 81.8l-.85 4.8h-.46l.87-4.84v-.35a1.28 1.28 0 00-1.44-1.31c-2.11 0-3.5 2.25-3.83 4.11l-.42 2.39h-.46l1.16-6.77h.47l-.5 2.82a3.94 3.94 0 013.59-3 1.66 1.66 0 011.84 1.71 1.8 1.8 0 01.03.44z"/>
        <path class="cls-1"
              d="M277.18 86.67h-.51a.07.07 0 010-.06l.87-4.87a1.63 1.63 0 000-.31 1.22 1.22 0 00-1.37-1.25c-2 0-3.41 2.09-3.76 4.06l-.42 2.4a.08.08 0 01-.07 0h-.51a.07.07 0 010-.06l1.17-6.78a.06.06 0 01.06 0h.47a.07.07 0 010 .06l-.39 2.26a3.88 3.88 0 013.45-2.48 1.73 1.73 0 011.91 1.78 1.93 1.93 0 010 .41l-.85 4.81a.08.08 0 01-.05.03zm-.38-.13h.33l.84-4.75a1.71 1.71 0 000-.39 1.59 1.59 0 00-1.78-1.64 3.88 3.88 0 00-3.52 2.91.08.08 0 01-.07 0h-.05a.07.07 0 010-.06l.48-2.75h-.33l-1.14 6.65h.32l.41-2.34c.36-2 1.85-4.17 3.9-4.17a1.34 1.34 0 011.5 1.38v.33zM287 80.71a3.29 3.29 0 00-1.83-.54 3.69 3.69 0 00-3.66 3.68 2.34 2.34 0 002.56 2.42 4 4 0 002.08-.53l-.11.49a4.19 4.19 0 01-2 .45 2.72 2.72 0 01-3-2.8 4.12 4.12 0 014.18-4.13 3.7 3.7 0 012 .54z"/>
        <path class="cls-1"
              d="M284 86.75a2.8 2.8 0 01-3-2.87 4.18 4.18 0 014.24-4.2 3.82 3.82 0 012 .55.07.07 0 010 .09l-.19.42a.05.05 0 01-.05 0 3.29 3.29 0 00-1.79-.52 3.6 3.6 0 00-3.59 3.61 2.27 2.27 0 002.49 2.36 3.86 3.86 0 002-.53h.07v.07l-.1.49a.1.1 0 010 .05 4.13 4.13 0 01-2.08.48zm1.21-6.93a4 4 0 00-4.11 4.06 2.64 2.64 0 002.9 2.73 4.05 4.05 0 002-.42l.07-.32a4.05 4.05 0 01-2 .47 2.4 2.4 0 01-2.63-2.49 3.74 3.74 0 013.73-3.75 3.44 3.44 0 011.8.51l.14-.3a3.73 3.73 0 00-1.88-.49zM288.89 86.72c-.17 0-.46-.34-.46-.52s.41-.51.58-.51.46.34.46.51-.42.52-.58.52z"/>
        <path class="cls-1"
              d="M288.89 86.79c-.22 0-.53-.39-.53-.59s.45-.58.65-.58.53.39.53.58-.45.59-.65.59zm.12-1c-.14 0-.52.32-.52.44s.27.46.4.46.51-.32.51-.46-.27-.47-.4-.47z"/>
    </g>
</svg>
